<?xml version="1.0" encoding="iso-8859-1"?>
<!-- Uploaded to: SVG Repo, www.svgrepo.com, Generator: SVG Repo Mixer Tools -->
<!DOCTYPE svg PUBLIC "-//W3C//DTD SVG 1.1//EN" "http://www.w3.org/Graphics/SVG/1.1/DTD/svg11.dtd">
<svg fill="#000000" height="800px" width="800px" version="1.1" id="Capa_1" xmlns="http://www.w3.org/2000/svg" xmlns:xlink="http://www.w3.org/1999/xlink" 
	 viewBox="0 0 462.356 462.356" xml:space="preserve">
<g>
	<path d="M184.31,198.849c1.176,0.487,2.41,0.724,3.634,0.724c2.472,0,4.902-0.966,6.719-2.783L303.786,87.667
		c1.782-1.782,2.783-4.198,2.783-6.718c0-2.52-1.001-4.937-2.784-6.718c-30.95-30.94-72.089-47.98-115.839-47.98
		c-5.247,0-9.5,4.253-9.5,9.5v154.321C178.446,193.914,180.76,197.378,184.31,198.849z M197.446,45.555
		c31.954,2.057,61.914,14.465,85.971,35.611l-85.971,85.971V45.555z"/>
	<path d="M422.326,182.92c12.954-9.911,21.33-25.518,21.33-43.051c0-29.881-24.31-54.192-54.191-54.192
		s-54.191,24.311-54.191,54.192c0,13.425,4.918,25.715,13.032,35.191h-38.033c-7.862-15.661-18.133-29.894-30.605-42.366
		c-3.709-3.71-9.724-3.71-13.435,0l-92.913,92.904V94.212c0-5.247-4.253-9.5-9.5-9.5C73.489,84.712,0,158.202,0,248.532
		c0,90.336,73.489,163.83,163.82,163.83c90.336,0,163.83-73.494,163.83-163.83c0-4.913-0.229-9.839-0.667-14.735h1.795
		c3.581,0,6.495,2.913,6.495,6.494v173.443c0,12.335,10.036,22.371,22.371,22.371h63.642c12.335,0,22.371-10.036,22.371-22.371
		l0-81.088c10.889-3.908,18.7-14.336,18.7-26.554v-58.141C462.356,219.579,446.05,194.958,422.326,182.92z M354.273,139.869
		c0-19.405,15.787-35.192,35.191-35.192s35.191,15.787,35.191,35.192s-15.787,35.191-35.191,35.191S354.273,159.274,354.273,139.869
		z M154.32,104.021v124.402l-96.033-78.964C82.693,123.478,116.556,106.478,154.32,104.021z M19,248.532
		c0-31.47,10.096-60.623,27.211-84.403l105.935,87.105L95.114,375.998C49.829,351.487,19,303.543,19,248.532z M308.65,248.532
		c0,79.859-64.971,144.83-144.83,144.83c-18.106,0-35.442-3.35-51.434-9.447l59.374-129.889l100.972-100.963
		c6.003,6.836,11.314,14.191,15.912,21.997H269.1c-16.194,0-29.368,13.174-29.368,29.368s13.174,29.369,29.368,29.369h38.778
		C308.373,238.687,308.65,243.615,308.65,248.532z M443.356,306.093c0,5.08-4.138,9.211-9.221,9.2
		c-5.217-0.012-9.479,4.633-9.479,9.85v88.592c0,1.862-1.509,3.371-3.371,3.371h-18.431c-2.149,0-3.89-1.742-3.89-3.89v-75.541
		c0-5.06-3.818-9.478-8.867-9.805c-5.533-0.358-10.133,4.024-10.133,9.479v75.866c0,2.149-1.742,3.89-3.89,3.89h-18.431
		c-1.862,0-3.371-1.509-3.371-3.371V240.292c0-14.08-11.414-25.494-25.494-25.494h-59.374c-5.396,0-10.119-3.996-10.625-9.368
		c-0.581-6.164,4.273-11.369,10.321-11.369h120.364c29.764,0,53.892,24.128,53.892,53.892V306.093z"/>
</g>
</svg>